<?xml version="1.0" encoding="UTF-8" standalone="no"?>
<svg width="742px" height="141px" viewBox="0 0 742 141" version="1.1" xmlns="http://www.w3.org/2000/svg" xmlns:xlink="http://www.w3.org/1999/xlink" xmlns:sketch="http://www.bohemiancoding.com/sketch/ns">
    <!-- Generator: Sketch 3.0.4 (8053) - http://www.bohemiancoding.com/sketch -->
    <title>Group + the</title>
    <desc>Created with Sketch.</desc>
    <defs></defs>
    <g id="Page-1" stroke="none" stroke-width="1" fill="none" fill-rule="evenodd" sketch:type="MSPage">
        <g id="Group-+-the" sketch:type="MSLayerGroup" transform="translate(0.000000, -4.000000)">
            <g id="Group" transform="translate(0.000000, 54.000000)" fill="#323232" sketch:type="MSShapeGroup">
                <g id="Rectangle-1-+-P">
                    <path d="M3.0018135,0 C1.34395768,0 0,1.33918961 0,3.0018135 L0,87.9981865 C0,89.6560423 1.33918961,91 3.0018135,91 L87.9981865,91 C89.6560423,91 91,89.6608104 91,87.9981865 L91,3.0018135 C91,1.34395768 89.6608104,0 87.9981865,0 L3.0018135,0 Z M41.5,52.40625 L41.5,72 L34.21875,72 L34.21875,23.75 L42.46875,23.75 C46.5104369,23.75 49.5624897,24.0312472 51.625,24.59375 C53.7083437,25.1562528 55.5416588,26.2187422 57.125,27.78125 C59.8958472,30.4895969 61.28125,33.9062294 61.28125,38.03125 C61.28125,42.4479387 59.8020981,45.9479038 56.84375,48.53125 C53.8854019,51.1145962 49.8958584,52.40625 44.875,52.40625 L41.5,52.40625 Z M41.5,45.65625 L44.21875,45.65625 C50.9062834,45.65625 54.25,43.0833591 54.25,37.9375 C54.25,32.9583084 50.8021178,30.46875 43.90625,30.46875 L41.5,30.46875 L41.5,45.65625 Z" id="Rectangle-1"></path>
                </g>
                <path d="M96.0018135,0 C94.3439577,0 93,1.33918961 93,3.0018135 L93,87.9981865 C93,89.6560423 94.3391896,91 96.0018135,91 L180.998187,91 C182.656042,91 184,89.6608104 184,87.9981865 L184,3.0018135 C184,1.34395768 182.66081,0 180.998187,0 L96.0018135,0 Z M127.78125,23.75 L127.78125,52.8125 C127.78125,56.9583541 128.458327,59.9895738 129.8125,61.90625 C131.833343,64.6770972 134.677065,66.0625 138.34375,66.0625 C142.031268,66.0625 144.885407,64.6770972 146.90625,61.90625 C148.260423,60.0520741 148.9375,57.0208544 148.9375,52.8125 L148.9375,23.75 L156.21875,23.75 L156.21875,54.8125 C156.21875,59.8958588 154.635433,64.0833169 151.46875,67.375 C147.906232,71.041685 143.531276,72.875 138.34375,72.875 C133.156224,72.875 128.791684,71.041685 125.25,67.375 C122.083317,64.0833169 120.5,59.8958588 120.5,54.8125 L120.5,23.75 L127.78125,23.75 Z" id="Rectangle-1"></path>
                <path d="M189.001813,0 C187.343958,0 186,1.33918961 186,3.0018135 L186,87.9981865 C186,89.6560423 187.33919,91 189.001813,91 L273.998187,91 C275.656042,91 277,89.6608104 277,87.9981865 L277,3.0018135 C277,1.34395768 275.66081,0 273.998187,0 L189.001813,0 Z M210.75,72 L210.75,20.46875 L245.9375,57.28125 L245.9375,23.75 L253.21875,23.75 L253.21875,74.9375 L218.03125,38.21875 L218.03125,72 L210.75,72 Z" id="Rectangle-1"></path>
                <path d="M282.001813,0 C280.343958,0 279,1.33918961 279,3.0018135 L279,87.9981865 C279,89.6560423 280.33919,91 282.001813,91 L366.998187,91 C368.656042,91 370,89.6608104 370,87.9981865 L370,3.0018135 C370,1.34395768 368.66081,0 366.998187,0 L282.001813,0 Z M310.9375,72 L310.9375,23.75 L318.1875,23.75 C321.416683,23.75 323.989574,23.9999975 325.90625,24.5 C327.84376,25.0000025 329.47916,25.8437441 330.8125,27.03125 C332.166673,28.2604228 333.239579,29.7916575 334.03125,31.625 C334.843754,33.4791759 335.25,35.3541572 335.25,37.25 C335.25,40.7083506 333.927097,43.6354047 331.28125,46.03125 C333.843763,46.9062544 335.864576,48.4374891 337.34375,50.625 C338.843758,52.7916775 339.59375,55.3124856 339.59375,58.1875 C339.59375,61.9583522 338.26043,65.1458203 335.59375,67.75 C333.989575,69.3541747 332.18751,70.4687469 330.1875,71.09375 C327.999989,71.6979197 325.260433,72 321.96875,72 L310.9375,72 Z M318.21875,44.46875 L320.5,44.46875 C323.208347,44.46875 325.192702,43.8697977 326.453125,42.671875 C327.713548,41.4739523 328.34375,39.708345 328.34375,37.375 C328.34375,35.1041553 327.697923,33.3802142 326.40625,32.203125 C325.114577,31.0260358 323.239596,30.4375 320.78125,30.4375 L318.21875,30.4375 L318.21875,44.46875 Z M318.21875,65.15625 L322.71875,65.15625 C326.010433,65.15625 328.427076,64.5104231 329.96875,63.21875 C331.593758,61.8229097 332.40625,60.0520941 332.40625,57.90625 C332.40625,55.8229063 331.625008,54.0729238 330.0625,52.65625 C328.541659,51.2604097 325.822936,50.5625 321.90625,50.5625 L318.21875,50.5625 L318.21875,65.15625 Z" id="Rectangle-1"></path>
                <path d="M375.001813,0 C373.343958,0 372,1.33918961 372,3.0018135 L372,87.9981865 C372,89.6560423 373.33919,91 375.001813,91 L459.998187,91 C461.656042,91 463,89.6608104 463,87.9981865 L463,3.0018135 C463,1.34395768 461.66081,0 459.998187,0 L375.001813,0 Z M392.1875,47.65625 C392.1875,40.8645494 394.677058,35.0312744 399.65625,30.15625 C404.614608,25.2812256 410.572882,22.84375 417.53125,22.84375 C424.406284,22.84375 430.302059,25.3020587 435.21875,30.21875 C440.156275,35.1354412 442.625,41.0416322 442.625,47.9375 C442.625,54.8750347 440.145858,60.7603925 435.1875,65.59375 C430.208308,70.4479409 424.197952,72.875 417.15625,72.875 C410.927052,72.875 405.333358,70.7187716 400.375,66.40625 C394.916639,61.6353928 392.1875,55.3854553 392.1875,47.65625 Z M399.53125,47.75 C399.53125,53.08336 401.322899,57.4687328 404.90625,60.90625 C408.468768,64.3437672 412.58331,66.0625 417.25,66.0625 C422.312525,66.0625 426.583316,64.3125175 430.0625,60.8125 C433.541684,57.2708156 435.28125,52.9583588 435.28125,47.875 C435.28125,42.7291409 433.562517,38.4166841 430.125,34.9375 C426.708316,31.4374825 422.479192,29.6875 417.4375,29.6875 C412.416642,29.6875 408.177101,31.4374825 404.71875,34.9375 C401.260399,38.3958506 399.53125,42.6666412 399.53125,47.75 Z" id="Rectangle-1"></path>
                <path d="M468.001813,0 C466.343958,0 465,1.33918961 465,3.0018135 L465,87.9981865 C465,89.6560423 466.33919,91 468.001813,91 L552.998187,91 C554.656042,91 556,89.6608104 556,87.9981865 L556,3.0018135 C556,1.34395768 554.66081,0 552.998187,0 L468.001813,0 Z M520.71875,60.28125 L500.0625,60.28125 L494.6875,72 L486.84375,72 L510.71875,20.71875 L533.75,72 L525.78125,72 L520.71875,60.28125 Z M517.75,53.4375 L510.59375,37.03125 L503.09375,53.4375 L517.75,53.4375 Z" id="Rectangle-1"></path>
                <path d="M561.001813,0 C559.343958,0 558,1.33918961 558,3.0018135 L558,87.9981865 C558,89.6560423 559.33919,91 561.001813,91 L645.998187,91 C647.656042,91 649,89.6608104 649,87.9981865 L649,3.0018135 C649,1.34395768 647.66081,0 645.998187,0 L561.001813,0 Z M606.59375,51.4375 L621.53125,72 L612.625,72 L598.84375,52.25 L597.53125,52.25 L597.53125,72 L590.25,72 L590.25,23.75 L598.78125,23.75 C605.156282,23.75 609.760403,24.9479047 612.59375,27.34375 C615.718766,30.01043 617.28125,33.5312281 617.28125,37.90625 C617.28125,41.3229338 616.302093,44.2604044 614.34375,46.71875 C612.385407,49.1770956 609.802099,50.7499966 606.59375,51.4375 Z M597.53125,45.90625 L599.84375,45.90625 C606.739618,45.90625 610.1875,43.2708597 610.1875,38 C610.1875,33.0624753 606.833367,30.59375 600.125,30.59375 L597.53125,30.59375 L597.53125,45.90625 Z" id="Rectangle-1"></path>
                <path d="M654.001813,0 C652.343958,0 651,1.33918961 651,3.0018135 L651,87.9981865 C651,89.6560423 652.33919,91 654.001813,91 L738.998187,91 C740.656042,91 742,89.6608104 742,87.9981865 L742,3.0018135 C742,1.34395768 740.66081,0 738.998187,0 L654.001813,0 Z M679.3125,72 L679.3125,23.75 L689.4375,23.75 C694.291691,23.75 698.124986,24.2291619 700.9375,25.1875 C703.958348,26.1250047 706.697904,27.7187387 709.15625,29.96875 C714.135442,34.5104394 716.625,40.4791297 716.625,47.875 C716.625,55.2917037 714.031276,61.2916437 708.84375,65.875 C706.23957,68.1666781 703.510431,69.7604122 700.65625,70.65625 C697.98957,71.5520878 694.208358,72 689.3125,72 L679.3125,72 Z M686.59375,65.15625 L689.875,65.15625 C693.14585,65.15625 695.864573,64.8125034 698.03125,64.125 C700.197927,63.3958297 702.156241,62.2395912 703.90625,60.65625 C707.489601,57.3854003 709.28125,53.1250263 709.28125,47.875 C709.28125,42.5833069 707.510434,38.2916831 703.96875,35 C700.781234,32.0624853 696.083364,30.59375 689.875,30.59375 L686.59375,30.59375 L686.59375,65.15625 Z" id="Rectangle-1"></path>
            </g>
            <text id="the" sketch:type="MSTextLayer" font-family="Futura" font-size="36" font-style="condensed" font-weight="normal" fill="#333333">
                <tspan x="353" y="35">the</tspan>
            </text>
        </g>
    </g>
</svg>